<svg width="9" height="11" viewBox="0 0 9 11" fill="none" xmlns="http://www.w3.org/2000/svg">
<path d="M8.43412 4.39919C8.59354 3.335 7.78271 2.7628 6.67485 2.38099L7.03432 0.939048L6.15697 0.720727L5.80664 2.12459C5.57614 2.0667 5.33954 2.01289 5.10345 1.95907L5.45631 0.546069L4.57897 0.32724L4.2195 1.76867C4.02859 1.72501 3.84073 1.68236 3.65897 1.63666L3.65998 1.63209L2.44957 1.33L2.21602 2.26726C2.21602 2.26726 2.86743 2.41653 2.85372 2.42567C3.20913 2.51452 3.2731 2.74959 3.26244 2.93644L2.85321 4.57893C2.87758 4.58502 2.90906 4.59416 2.9446 4.60787L2.85169 4.58502L2.27796 6.88603C2.23429 6.99367 2.12412 7.15563 1.87533 7.0942C1.88447 7.10689 1.23763 6.93528 1.23763 6.93528L0.802002 7.93956L1.94438 8.22439C2.15661 8.2777 2.36478 8.33355 2.56939 8.38585L2.20637 9.84403L3.08321 10.0624L3.44268 8.62042C3.68232 8.6849 3.91486 8.74481 4.14232 8.80167L3.78387 10.2375L4.66122 10.4558L5.02424 9.0007C6.52101 9.28401 7.64613 9.16977 8.11984 7.81618C8.50165 6.7266 8.10105 6.09753 7.31357 5.6878C7.8873 5.55579 8.31887 5.17855 8.43412 4.39919ZM6.42861 7.21097C6.15799 8.30106 4.32257 7.71159 3.72751 7.56384L4.20985 5.63195C4.8049 5.78071 6.71243 6.07468 6.42861 7.21097ZM6.70024 4.38345C6.45298 5.37504 4.92574 4.87087 4.43071 4.74749L4.86735 2.99584C5.36239 3.11922 6.95816 3.34922 6.70024 4.38345Z" fill="white"/>
</svg>
