<svg width="375" height="80" viewBox="0 0 375 80" fill="none" xmlns="http://www.w3.org/2000/svg">
<mask id="path-1-inside-1_616_1038" fill="white">
<path fill-rule="evenodd" clip-rule="evenodd" d="M188 32C194.37 32 200.306 30.1385 205.293 26.9298C220.155 17.3665 234.327 0 252 0H343C360.673 0 375 14.3269 375 32V48C375 65.6731 360.673 80 343 80H32C14.3269 80 0 65.6731 0 48V32C0 14.3269 14.3269 0 32 0H124C141.673 0 155.845 17.3665 170.707 26.9298C175.694 30.1385 181.63 32 188 32Z"/>
</mask>
<path fill-rule="evenodd" clip-rule="evenodd" d="M188 32C194.37 32 200.306 30.1385 205.293 26.9298C220.155 17.3665 234.327 0 252 0H343C360.673 0 375 14.3269 375 32V48C375 65.6731 360.673 80 343 80H32C14.3269 80 0 65.6731 0 48V32C0 14.3269 14.3269 0 32 0H124C141.673 0 155.845 17.3665 170.707 26.9298C175.694 30.1385 181.63 32 188 32Z" fill="white"/>
<path d="M204.752 26.0889C199.921 29.1968 194.173 31 188 31V33C194.568 33 200.691 31.0802 205.834 27.7707L204.752 26.0889ZM252 1H343V-1H252V1ZM374 32V48H376V32H374ZM343 79H32V81H343V79ZM1 48V32H-1V48H1ZM32 1H124V-1H32V1ZM188 31C181.827 31 176.079 29.1968 171.248 26.0888L170.166 27.7707C175.309 31.0802 181.432 33 188 33V31ZM124 1C132.507 1 140.251 5.18021 147.819 10.6873C151.599 13.4373 155.289 16.4824 158.998 19.4666C162.694 22.4404 166.402 25.3486 170.166 27.7707L171.248 26.0888C167.582 23.7294 163.945 20.8805 160.252 17.9084C156.571 14.9467 152.827 11.8571 148.996 9.07005C141.345 3.50304 133.166 -1 124 -1V1ZM32 79C14.8792 79 1 65.1208 1 48H-1C-1 66.2254 13.7746 81 32 81V79ZM374 48C374 65.1208 360.121 79 343 79V81C361.225 81 376 66.2254 376 48H374ZM343 1C360.121 1 374 14.8792 374 32H376C376 13.7746 361.225 -1 343 -1V1ZM1 32C1 14.8792 14.8792 1 32 1V-1C13.7746 -1 -1 13.7746 -1 32H1ZM205.834 27.7707C209.598 25.3486 213.306 22.4404 217.002 19.4666C220.711 16.4824 224.401 13.4373 228.181 10.6873C235.749 5.18021 243.493 1 252 1V-1C242.834 -1 234.655 3.50304 227.004 9.07006C223.173 11.8571 219.429 14.9467 215.748 17.9084C212.055 20.8805 208.418 23.7294 204.752 26.0889L205.834 27.7707Z" fill="#EBEBEB" mask="url(#path-1-inside-1_616_1038)"/>
</svg>
