<svg width="290" height="112" viewBox="0 0 290 112" fill="none" xmlns="http://www.w3.org/2000/svg">
<g clip-path="url(#clip0_1_4394)">
<rect width="290" height="112" rx="8" fill="#1C1C93"/>
<path d="M23.6887 29H22.5967L18.2047 22.34V29H17.1127V20.624H18.2047L22.5967 27.272V20.624H23.6887V29ZM24.8422 25.688C24.8422 25.016 24.9782 24.428 25.2502 23.924C25.5222 23.412 25.8942 23.016 26.3662 22.736C26.8462 22.456 27.3782 22.316 27.9622 22.316C28.5382 22.316 29.0382 22.44 29.4622 22.688C29.8862 22.936 30.2022 23.248 30.4102 23.624V22.424H31.5142V29H30.4102V27.776C30.1942 28.16 29.8702 28.48 29.4382 28.736C29.0142 28.984 28.5182 29.108 27.9502 29.108C27.3662 29.108 26.8382 28.964 26.3662 28.676C25.8942 28.388 25.5222 27.984 25.2502 27.464C24.9782 26.944 24.8422 26.352 24.8422 25.688ZM30.4102 25.7C30.4102 25.204 30.3102 24.772 30.1102 24.404C29.9102 24.036 29.6382 23.756 29.2942 23.564C28.9582 23.364 28.5862 23.264 28.1782 23.264C27.7702 23.264 27.3982 23.36 27.0622 23.552C26.7262 23.744 26.4582 24.024 26.2582 24.392C26.0582 24.76 25.9582 25.192 25.9582 25.688C25.9582 26.192 26.0582 26.632 26.2582 27.008C26.4582 27.376 26.7262 27.66 27.0622 27.86C27.3982 28.052 27.7702 28.148 28.1782 28.148C28.5862 28.148 28.9582 28.052 29.2942 27.86C29.6382 27.66 29.9102 27.376 30.1102 27.008C30.3102 26.632 30.4102 26.196 30.4102 25.7ZM33.6235 21.356C33.4155 21.356 33.2395 21.284 33.0955 21.14C32.9515 20.996 32.8795 20.82 32.8795 20.612C32.8795 20.404 32.9515 20.228 33.0955 20.084C33.2395 19.94 33.4155 19.868 33.6235 19.868C33.8235 19.868 33.9915 19.94 34.1275 20.084C34.2715 20.228 34.3435 20.404 34.3435 20.612C34.3435 20.82 34.2715 20.996 34.1275 21.14C33.9915 21.284 33.8235 21.356 33.6235 21.356ZM34.1515 22.424V29H33.0595V22.424H34.1515ZM36.8047 23.492C36.9967 23.116 37.2687 22.824 37.6207 22.616C37.9807 22.408 38.4167 22.304 38.9287 22.304V23.432H38.6407C37.4167 23.432 36.8047 24.096 36.8047 25.424V29H35.7127V22.424H36.8047V23.492ZM39.4812 25.688C39.4812 25.016 39.6172 24.428 39.8892 23.924C40.1612 23.412 40.5332 23.016 41.0052 22.736C41.4852 22.456 42.0172 22.316 42.6012 22.316C43.1772 22.316 43.6772 22.44 44.1012 22.688C44.5252 22.936 44.8412 23.248 45.0492 23.624V22.424H46.1532V29H45.0492V27.776C44.8332 28.16 44.5092 28.48 44.0772 28.736C43.6532 28.984 43.1572 29.108 42.5892 29.108C42.0052 29.108 41.4772 28.964 41.0052 28.676C40.5332 28.388 40.1612 27.984 39.8892 27.464C39.6172 26.944 39.4812 26.352 39.4812 25.688ZM45.0492 25.7C45.0492 25.204 44.9492 24.772 44.7492 24.404C44.5492 24.036 44.2772 23.756 43.9332 23.564C43.5972 23.364 43.2252 23.264 42.8172 23.264C42.4092 23.264 42.0372 23.36 41.7012 23.552C41.3652 23.744 41.0972 24.024 40.8972 24.392C40.6972 24.76 40.5972 25.192 40.5972 25.688C40.5972 26.192 40.6972 26.632 40.8972 27.008C41.0972 27.376 41.3652 27.66 41.7012 27.86C42.0372 28.052 42.4092 28.148 42.8172 28.148C43.2252 28.148 43.5972 28.052 43.9332 27.86C44.2772 27.66 44.5492 27.376 44.7492 27.008C44.9492 26.632 45.0492 26.196 45.0492 25.7ZM54.7858 24.692C55.0898 24.74 55.3658 24.864 55.6138 25.064C55.8698 25.264 56.0698 25.512 56.2138 25.808C56.3658 26.104 56.4418 26.42 56.4418 26.756C56.4418 27.18 56.3338 27.564 56.1178 27.908C55.9018 28.244 55.5858 28.512 55.1698 28.712C54.7618 28.904 54.2778 29 53.7178 29H50.5978V20.636H53.5978C54.1658 20.636 54.6498 20.732 55.0498 20.924C55.4498 21.108 55.7498 21.36 55.9498 21.68C56.1498 22 56.2498 22.36 56.2498 22.76C56.2498 23.256 56.1138 23.668 55.8418 23.996C55.5778 24.316 55.2258 24.548 54.7858 24.692ZM51.6898 24.248H53.5258C54.0378 24.248 54.4338 24.128 54.7138 23.888C54.9938 23.648 55.1338 23.316 55.1338 22.892C55.1338 22.468 54.9938 22.136 54.7138 21.896C54.4338 21.656 54.0298 21.536 53.5018 21.536H51.6898V24.248ZM53.6218 28.1C54.1658 28.1 54.5898 27.972 54.8938 27.716C55.1978 27.46 55.3498 27.104 55.3498 26.648C55.3498 26.184 55.1898 25.82 54.8698 25.556C54.5498 25.284 54.1218 25.148 53.5858 25.148H51.6898V28.1H53.6218ZM57.2492 25.688C57.2492 25.016 57.3852 24.428 57.6572 23.924C57.9292 23.412 58.3012 23.016 58.7732 22.736C59.2532 22.456 59.7852 22.316 60.3692 22.316C60.9452 22.316 61.4452 22.44 61.8692 22.688C62.2932 22.936 62.6092 23.248 62.8172 23.624V22.424H63.9212V29H62.8172V27.776C62.6012 28.16 62.2772 28.48 61.8452 28.736C61.4212 28.984 60.9252 29.108 60.3572 29.108C59.7732 29.108 59.2452 28.964 58.7732 28.676C58.3012 28.388 57.9292 27.984 57.6572 27.464C57.3852 26.944 57.2492 26.352 57.2492 25.688ZM62.8172 25.7C62.8172 25.204 62.7172 24.772 62.5172 24.404C62.3172 24.036 62.0452 23.756 61.7012 23.564C61.3652 23.364 60.9932 23.264 60.5852 23.264C60.1772 23.264 59.8052 23.36 59.4692 23.552C59.1332 23.744 58.8652 24.024 58.6652 24.392C58.4652 24.76 58.3652 25.192 58.3652 25.688C58.3652 26.192 58.4652 26.632 58.6652 27.008C58.8652 27.376 59.1332 27.66 59.4692 27.86C59.8052 28.052 60.1772 28.148 60.5852 28.148C60.9932 28.148 61.3652 28.052 61.7012 27.86C62.0452 27.66 62.3172 27.376 62.5172 27.008C62.7172 26.632 62.8172 26.196 62.8172 25.7ZM66.5586 20.12V29H65.4666V20.12H66.5586ZM67.7117 25.688C67.7117 25.016 67.8477 24.428 68.1197 23.924C68.3917 23.412 68.7637 23.016 69.2357 22.736C69.7157 22.456 70.2477 22.316 70.8317 22.316C71.4077 22.316 71.9077 22.44 72.3317 22.688C72.7557 22.936 73.0717 23.248 73.2797 23.624V22.424H74.3837V29H73.2797V27.776C73.0637 28.16 72.7397 28.48 72.3077 28.736C71.8837 28.984 71.3877 29.108 70.8197 29.108C70.2357 29.108 69.7077 28.964 69.2357 28.676C68.7637 28.388 68.3917 27.984 68.1197 27.464C67.8477 26.944 67.7117 26.352 67.7117 25.688ZM73.2797 25.7C73.2797 25.204 73.1797 24.772 72.9797 24.404C72.7797 24.036 72.5077 23.756 72.1637 23.564C71.8277 23.364 71.4557 23.264 71.0477 23.264C70.6397 23.264 70.2677 23.36 69.9317 23.552C69.5957 23.744 69.3277 24.024 69.1277 24.392C68.9277 24.76 68.8277 25.192 68.8277 25.688C68.8277 26.192 68.9277 26.632 69.1277 27.008C69.3277 27.376 69.5957 27.66 69.9317 27.86C70.2677 28.052 70.6397 28.148 71.0477 28.148C71.4557 28.148 71.8277 28.052 72.1637 27.86C72.5077 27.66 72.7797 27.376 72.9797 27.008C73.1797 26.632 73.2797 26.196 73.2797 25.7ZM79.1331 22.304C79.9331 22.304 80.5811 22.548 81.0771 23.036C81.5731 23.516 81.8211 24.212 81.8211 25.124V29H80.7411V25.28C80.7411 24.624 80.5771 24.124 80.2491 23.78C79.9211 23.428 79.4731 23.252 78.9051 23.252C78.3291 23.252 77.8691 23.432 77.5251 23.792C77.1891 24.152 77.0211 24.676 77.0211 25.364V29H75.9291V22.424H77.0211V23.36C77.2371 23.024 77.5291 22.764 77.8971 22.58C78.2731 22.396 78.6851 22.304 79.1331 22.304ZM82.8969 25.7C82.8969 25.02 83.0329 24.428 83.3049 23.924C83.5769 23.412 83.9529 23.016 84.4329 22.736C84.9209 22.456 85.4769 22.316 86.1009 22.316C86.9089 22.316 87.5729 22.512 88.0929 22.904C88.6209 23.296 88.9689 23.84 89.1369 24.536H87.9609C87.8489 24.136 87.6289 23.82 87.3009 23.588C86.9809 23.356 86.5809 23.24 86.1009 23.24C85.4769 23.24 84.9729 23.456 84.5889 23.888C84.2049 24.312 84.0129 24.916 84.0129 25.7C84.0129 26.492 84.2049 27.104 84.5889 27.536C84.9729 27.968 85.4769 28.184 86.1009 28.184C86.5809 28.184 86.9809 28.072 87.3009 27.848C87.6209 27.624 87.8409 27.304 87.9609 26.888H89.1369C88.9609 27.56 88.6089 28.1 88.0809 28.508C87.5529 28.908 86.8929 29.108 86.1009 29.108C85.4769 29.108 84.9209 28.968 84.4329 28.688C83.9529 28.408 83.5769 28.012 83.3049 27.5C83.0329 26.988 82.8969 26.388 82.8969 25.7ZM96.2939 25.46C96.2939 25.668 96.2819 25.888 96.2579 26.12H91.0019C91.0419 26.768 91.2619 27.276 91.6619 27.644C92.0699 28.004 92.5619 28.184 93.1379 28.184C93.6099 28.184 94.0019 28.076 94.3139 27.86C94.6339 27.636 94.8579 27.34 94.9859 26.972H96.1619C95.9859 27.604 95.6339 28.12 95.1059 28.52C94.5779 28.912 93.9219 29.108 93.1379 29.108C92.5139 29.108 91.9539 28.968 91.4579 28.688C90.9699 28.408 90.5859 28.012 90.3059 27.5C90.0259 26.98 89.8859 26.38 89.8859 25.7C89.8859 25.02 90.0219 24.424 90.2939 23.912C90.5659 23.4 90.9459 23.008 91.4339 22.736C91.9299 22.456 92.4979 22.316 93.1379 22.316C93.7619 22.316 94.3139 22.452 94.7939 22.724C95.2739 22.996 95.6419 23.372 95.8979 23.852C96.1619 24.324 96.2939 24.86 96.2939 25.46ZM95.1659 25.232C95.1659 24.816 95.0739 24.46 94.8899 24.164C94.7059 23.86 94.4539 23.632 94.1339 23.48C93.8219 23.32 93.4739 23.24 93.0899 23.24C92.5379 23.24 92.0659 23.416 91.6739 23.768C91.2899 24.12 91.0699 24.608 91.0139 25.232H95.1659Z" fill="#D2D2E9"/>
<path opacity="0.4" d="M111.507 26.5779C111.124 26.1952 110.89 25.6752 110.89 25.0919C110.89 23.9232 111.832 22.9812 113 22.9812C113.578 22.9812 114.11 23.2152 114.486 23.5979" stroke="#D2D2E9" stroke-width="1.5" stroke-linecap="round" stroke-linejoin="round"/>
<path opacity="0.4" d="M115.07 25.4659C114.915 26.3259 114.238 27.0046 113.379 27.1606" stroke="#D2D2E9" stroke-width="1.5" stroke-linecap="round" stroke-linejoin="round"/>
<path d="M109.436 28.6482C108.378 27.8175 107.482 26.6042 106.833 25.0915C107.489 23.5722 108.391 22.3522 109.456 21.5149C110.514 20.6775 111.734 20.2229 113 20.2229C114.272 20.2229 115.492 20.6842 116.557 21.5275" stroke="#D2D2E9" stroke-width="1.5" stroke-linecap="round" stroke-linejoin="round"/>
<path d="M117.965 22.9939C118.424 23.6032 118.827 24.3065 119.166 25.0912C117.855 28.1292 115.538 29.9592 113 29.9592C112.424 29.9592 111.857 29.8659 111.312 29.6839" stroke="#D2D2E9" stroke-width="1.5" stroke-linecap="round" stroke-linejoin="round"/>
<path d="M118.258 19.8331L107.742 30.3491" stroke="#D2D2E9" stroke-width="1.5" stroke-linecap="round" stroke-linejoin="round"/>
<path d="M17.6998 68V63.06H16.5398V61.58H17.6998V60.14H16.5398V58.66H17.6998V53.72H20.8398L22.3998 58.66H24.2198V53.72H26.4398V58.66H27.5798V60.14H26.4398V61.58H27.5798V63.06H26.4398V68H23.2798L21.6798 63.06H19.9198V68H17.6998ZM19.9198 61.58H21.2398L20.7998 60.14H19.8798L19.9198 61.58ZM24.2798 64.88H24.3798L24.2998 63.06H23.7598L24.2798 64.88ZM19.8398 58.66H20.3998L19.8198 56.74H19.7398L19.8398 58.66ZM23.3398 61.58H24.2598L24.2198 60.14H22.8798L23.3398 61.58ZM30.3852 60.28C29.0518 59.5867 28.3852 58.5133 28.3852 57.06C28.3852 56.34 28.5652 55.6867 28.9252 55.1C29.2985 54.5 29.8518 54.0267 30.5852 53.68C31.3318 53.32 32.2385 53.14 33.3052 53.14C34.3718 53.14 35.2718 53.32 36.0052 53.68C36.7518 54.0267 37.3052 54.5 37.6652 55.1C38.0385 55.6867 38.2252 56.34 38.2252 57.06C38.2252 57.7933 38.0452 58.44 37.6852 59C37.3252 59.5467 36.8452 59.9733 36.2452 60.28C36.9785 60.6 37.5518 61.0667 37.9652 61.68C38.3785 62.2933 38.5852 63.02 38.5852 63.86C38.5852 64.7667 38.3518 65.56 37.8852 66.24C37.4318 66.9067 36.8052 67.42 36.0052 67.78C35.2052 68.14 34.3052 68.32 33.3052 68.32C32.3052 68.32 31.4052 68.14 30.6052 67.78C29.8185 67.42 29.1918 66.9067 28.7252 66.24C28.2718 65.56 28.0452 64.7667 28.0452 63.86C28.0452 63.02 28.2518 62.2933 28.6652 61.68C29.0785 61.0533 29.6518 60.5867 30.3852 60.28ZM35.5052 57.46C35.5052 56.8067 35.3052 56.3 34.9052 55.94C34.5185 55.58 33.9852 55.4 33.3052 55.4C32.6385 55.4 32.1052 55.58 31.7052 55.94C31.3185 56.3 31.1252 56.8133 31.1252 57.48C31.1252 58.08 31.3252 58.56 31.7252 58.92C32.1385 59.28 32.6652 59.46 33.3052 59.46C33.9452 59.46 34.4718 59.28 34.8852 58.92C35.2985 58.5467 35.5052 58.06 35.5052 57.46ZM33.3052 61.5C32.5452 61.5 31.9252 61.6933 31.4452 62.08C30.9785 62.4667 30.7452 63.02 30.7452 63.74C30.7452 64.4067 30.9718 64.9533 31.4252 65.38C31.8918 65.7933 32.5185 66 33.3052 66C34.0918 66 34.7118 65.7867 35.1652 65.36C35.6185 64.9333 35.8452 64.3933 35.8452 63.74C35.8452 63.0333 35.6118 62.4867 35.1452 62.1C34.6785 61.7 34.0652 61.5 33.3052 61.5ZM43.1367 63.9C43.2434 64.4867 43.4834 64.94 43.8567 65.26C44.2434 65.5667 44.7567 65.72 45.3967 65.72C46.2234 65.72 46.8234 65.38 47.1967 64.7C47.5701 64.0067 47.7567 62.8467 47.7567 61.22C47.4501 61.6467 47.0167 61.98 46.4567 62.22C45.9101 62.46 45.3167 62.58 44.6767 62.58C43.8234 62.58 43.0501 62.4067 42.3567 62.06C41.6767 61.7 41.1367 61.1733 40.7367 60.48C40.3367 59.7733 40.1367 58.92 40.1367 57.92C40.1367 56.44 40.5767 55.2667 41.4567 54.4C42.3367 53.52 43.5367 53.08 45.0567 53.08C46.9501 53.08 48.2834 53.6867 49.0567 54.9C49.8434 56.1133 50.2367 57.94 50.2367 60.38C50.2367 62.1133 50.0834 63.5333 49.7767 64.64C49.4834 65.7467 48.9701 66.5867 48.2367 67.16C47.5167 67.7333 46.5301 68.02 45.2767 68.02C44.2901 68.02 43.4501 67.8333 42.7567 67.46C42.0634 67.0733 41.5301 66.5733 41.1567 65.96C40.7967 65.3333 40.5901 64.6467 40.5367 63.9H43.1367ZM45.2567 60.3C45.9501 60.3 46.4967 60.0867 46.8967 59.66C47.2967 59.2333 47.4967 58.66 47.4967 57.94C47.4967 57.1533 47.2834 56.5467 46.8567 56.12C46.4434 55.68 45.8767 55.46 45.1567 55.46C44.4367 55.46 43.8634 55.6867 43.4367 56.14C43.0234 56.58 42.8167 57.1667 42.8167 57.9C42.8167 58.6067 43.0167 59.1867 43.4167 59.64C43.8301 60.08 44.4434 60.3 45.2567 60.3ZM54.8962 65.06L52.5562 70.68H50.7562L52.0562 65.06H54.8962ZM58.9344 63.9C59.041 64.4867 59.281 64.94 59.6544 65.26C60.041 65.5667 60.5544 65.72 61.1944 65.72C62.021 65.72 62.621 65.38 62.9944 64.7C63.3677 64.0067 63.5544 62.8467 63.5544 61.22C63.2477 61.6467 62.8144 61.98 62.2544 62.22C61.7077 62.46 61.1144 62.58 60.4744 62.58C59.621 62.58 58.8477 62.4067 58.1544 62.06C57.4744 61.7 56.9344 61.1733 56.5344 60.48C56.1344 59.7733 55.9344 58.92 55.9344 57.92C55.9344 56.44 56.3744 55.2667 57.2544 54.4C58.1344 53.52 59.3344 53.08 60.8544 53.08C62.7477 53.08 64.081 53.6867 64.8544 54.9C65.641 56.1133 66.0344 57.94 66.0344 60.38C66.0344 62.1133 65.881 63.5333 65.5744 64.64C65.281 65.7467 64.7677 66.5867 64.0344 67.16C63.3144 67.7333 62.3277 68.02 61.0744 68.02C60.0877 68.02 59.2477 67.8333 58.5544 67.46C57.861 67.0733 57.3277 66.5733 56.9544 65.96C56.5944 65.3333 56.3877 64.6467 56.3344 63.9H58.9344ZM61.0544 60.3C61.7477 60.3 62.2944 60.0867 62.6944 59.66C63.0944 59.2333 63.2944 58.66 63.2944 57.94C63.2944 57.1533 63.081 56.5467 62.6544 56.12C62.241 55.68 61.6744 55.46 60.9544 55.46C60.2344 55.46 59.661 55.6867 59.2344 56.14C58.821 56.58 58.6144 57.1667 58.6144 57.9C58.6144 58.6067 58.8144 59.1867 59.2144 59.64C59.6277 60.08 60.241 60.3 61.0544 60.3ZM67.3139 60.52C67.3139 58.2133 67.7272 56.4067 68.5539 55.1C69.3939 53.7933 70.7806 53.14 72.7139 53.14C74.6472 53.14 76.0272 53.7933 76.8539 55.1C77.6939 56.4067 78.1139 58.2133 78.1139 60.52C78.1139 62.84 77.6939 64.66 76.8539 65.98C76.0272 67.3 74.6472 67.96 72.7139 67.96C70.7806 67.96 69.3939 67.3 68.5539 65.98C67.7272 64.66 67.3139 62.84 67.3139 60.52ZM75.3539 60.52C75.3539 59.5333 75.2872 58.7067 75.1539 58.04C75.0339 57.36 74.7806 56.8067 74.3939 56.38C74.0206 55.9533 73.4606 55.74 72.7139 55.74C71.9672 55.74 71.4006 55.9533 71.0139 56.38C70.6406 56.8067 70.3872 57.36 70.2539 58.04C70.1339 58.7067 70.0739 59.5333 70.0739 60.52C70.0739 61.5333 70.1339 62.3867 70.2539 63.08C70.3739 63.76 70.6272 64.3133 71.0139 64.74C71.4006 65.1533 71.9672 65.36 72.7139 65.36C73.4606 65.36 74.0272 65.1533 74.4139 64.74C74.8006 64.3133 75.0539 63.76 75.1739 63.08C75.2939 62.3867 75.3539 61.5333 75.3539 60.52ZM82.5836 63.9C82.6903 64.4867 82.9303 64.94 83.3036 65.26C83.6903 65.5667 84.2036 65.72 84.8436 65.72C85.6703 65.72 86.2703 65.38 86.6436 64.7C87.0169 64.0067 87.2036 62.8467 87.2036 61.22C86.8969 61.6467 86.4636 61.98 85.9036 62.22C85.3569 62.46 84.7636 62.58 84.1236 62.58C83.2703 62.58 82.4969 62.4067 81.8036 62.06C81.1236 61.7 80.5836 61.1733 80.1836 60.48C79.7836 59.7733 79.5836 58.92 79.5836 57.92C79.5836 56.44 80.0236 55.2667 80.9036 54.4C81.7836 53.52 82.9836 53.08 84.5036 53.08C86.3969 53.08 87.7303 53.6867 88.5036 54.9C89.2903 56.1133 89.6836 57.94 89.6836 60.38C89.6836 62.1133 89.5303 63.5333 89.2236 64.64C88.9303 65.7467 88.4169 66.5867 87.6836 67.16C86.9636 67.7333 85.9769 68.02 84.7236 68.02C83.7369 68.02 82.8969 67.8333 82.2036 67.46C81.5103 67.0733 80.9769 66.5733 80.6036 65.96C80.2436 65.3333 80.0369 64.6467 79.9836 63.9H82.5836ZM84.7036 60.3C85.3969 60.3 85.9436 60.0867 86.3436 59.66C86.7436 59.2333 86.9436 58.66 86.9436 57.94C86.9436 57.1533 86.7303 56.5467 86.3036 56.12C85.8903 55.68 85.3236 55.46 84.6036 55.46C83.8836 55.46 83.3103 55.6867 82.8836 56.14C82.4703 56.58 82.2636 57.1667 82.2636 57.9C82.2636 58.6067 82.4636 59.1867 82.8636 59.64C83.2769 60.08 83.8903 60.3 84.7036 60.3ZM94.3431 65.06L92.0031 70.68H90.2031L91.5031 65.06H94.3431ZM95.1413 60.52C95.1413 58.2133 95.5546 56.4067 96.3813 55.1C97.2213 53.7933 98.6079 53.14 100.541 53.14C102.475 53.14 103.855 53.7933 104.681 55.1C105.521 56.4067 105.941 58.2133 105.941 60.52C105.941 62.84 105.521 64.66 104.681 65.98C103.855 67.3 102.475 67.96 100.541 67.96C98.6079 67.96 97.2213 67.3 96.3813 65.98C95.5546 64.66 95.1413 62.84 95.1413 60.52ZM103.181 60.52C103.181 59.5333 103.115 58.7067 102.981 58.04C102.861 57.36 102.608 56.8067 102.221 56.38C101.848 55.9533 101.288 55.74 100.541 55.74C99.7946 55.74 99.2279 55.9533 98.8413 56.38C98.4679 56.8067 98.2146 57.36 98.0813 58.04C97.9613 58.7067 97.9013 59.5333 97.9013 60.52C97.9013 61.5333 97.9613 62.3867 98.0813 63.08C98.2013 63.76 98.4546 64.3133 98.8413 64.74C99.2279 65.1533 99.7946 65.36 100.541 65.36C101.288 65.36 101.855 65.1533 102.241 64.74C102.628 64.3133 102.881 63.76 103.001 63.08C103.121 62.3867 103.181 61.5333 103.181 60.52ZM107.171 60.52C107.171 58.2133 107.584 56.4067 108.411 55.1C109.251 53.7933 110.638 53.14 112.571 53.14C114.504 53.14 115.884 53.7933 116.711 55.1C117.551 56.4067 117.971 58.2133 117.971 60.52C117.971 62.84 117.551 64.66 116.711 65.98C115.884 67.3 114.504 67.96 112.571 67.96C110.638 67.96 109.251 67.3 108.411 65.98C107.584 64.66 107.171 62.84 107.171 60.52ZM115.211 60.52C115.211 59.5333 115.144 58.7067 115.011 58.04C114.891 57.36 114.638 56.8067 114.251 56.38C113.878 55.9533 113.318 55.74 112.571 55.74C111.824 55.74 111.258 55.9533 110.871 56.38C110.498 56.8067 110.244 57.36 110.111 58.04C109.991 58.7067 109.931 59.5333 109.931 60.52C109.931 61.5333 109.991 62.3867 110.111 63.08C110.231 63.76 110.484 64.3133 110.871 64.74C111.258 65.1533 111.824 65.36 112.571 65.36C113.318 65.36 113.884 65.1533 114.271 64.74C114.658 64.3133 114.911 63.76 115.031 63.08C115.151 62.3867 115.211 61.5333 115.211 60.52ZM122.441 63.9C122.547 64.4867 122.787 64.94 123.161 65.26C123.547 65.5667 124.061 65.72 124.701 65.72C125.527 65.72 126.127 65.38 126.501 64.7C126.874 64.0067 127.061 62.8467 127.061 61.22C126.754 61.6467 126.321 61.98 125.761 62.22C125.214 62.46 124.621 62.58 123.981 62.58C123.127 62.58 122.354 62.4067 121.661 62.06C120.981 61.7 120.441 61.1733 120.041 60.48C119.641 59.7733 119.441 58.92 119.441 57.92C119.441 56.44 119.881 55.2667 120.761 54.4C121.641 53.52 122.841 53.08 124.361 53.08C126.254 53.08 127.587 53.6867 128.361 54.9C129.147 56.1133 129.541 57.94 129.541 60.38C129.541 62.1133 129.387 63.5333 129.081 64.64C128.787 65.7467 128.274 66.5867 127.541 67.16C126.821 67.7333 125.834 68.02 124.581 68.02C123.594 68.02 122.754 67.8333 122.061 67.46C121.367 67.0733 120.834 66.5733 120.461 65.96C120.101 65.3333 119.894 64.6467 119.841 63.9H122.441ZM124.561 60.3C125.254 60.3 125.801 60.0867 126.201 59.66C126.601 59.2333 126.801 58.66 126.801 57.94C126.801 57.1533 126.587 56.5467 126.161 56.12C125.747 55.68 125.181 55.46 124.461 55.46C123.741 55.46 123.167 55.6867 122.741 56.14C122.327 56.58 122.121 57.1667 122.121 57.9C122.121 58.6067 122.321 59.1867 122.721 59.64C123.134 60.08 123.747 60.3 124.561 60.3Z" fill="#FAFAFA"/>
<path d="M134.611 59.084C134.363 59.084 134.155 59 133.987 58.832C133.819 58.664 133.735 58.456 133.735 58.208C133.735 57.96 133.819 57.752 133.987 57.584C134.155 57.416 134.363 57.332 134.611 57.332C134.851 57.332 135.055 57.416 135.223 57.584C135.391 57.752 135.475 57.96 135.475 58.208C135.475 58.456 135.391 58.664 135.223 58.832C135.055 59 134.851 59.084 134.611 59.084ZM136.474 54.512C136.474 53.128 136.706 52.048 137.17 51.272C137.642 50.488 138.45 50.096 139.594 50.096C140.738 50.096 141.542 50.488 142.006 51.272C142.478 52.048 142.714 53.128 142.714 54.512C142.714 55.912 142.478 57.008 142.006 57.8C141.542 58.584 140.738 58.976 139.594 58.976C138.45 58.976 137.642 58.584 137.17 57.8C136.706 57.008 136.474 55.912 136.474 54.512ZM141.37 54.512C141.37 53.864 141.326 53.316 141.238 52.868C141.158 52.42 140.99 52.056 140.734 51.776C140.478 51.488 140.098 51.344 139.594 51.344C139.09 51.344 138.71 51.488 138.454 51.776C138.198 52.056 138.026 52.42 137.938 52.868C137.858 53.316 137.818 53.864 137.818 54.512C137.818 55.184 137.858 55.748 137.938 56.204C138.018 56.66 138.186 57.028 138.442 57.308C138.706 57.588 139.09 57.728 139.594 57.728C140.098 57.728 140.478 57.588 140.734 57.308C140.998 57.028 141.17 56.66 141.25 56.204C141.33 55.748 141.37 55.184 141.37 54.512ZM148.565 52.28C148.477 51.912 148.317 51.636 148.085 51.452C147.853 51.268 147.529 51.176 147.113 51.176C146.481 51.176 146.009 51.42 145.697 51.908C145.385 52.388 145.221 53.188 145.205 54.308C145.413 53.956 145.717 53.684 146.117 53.492C146.517 53.3 146.949 53.204 147.413 53.204C147.941 53.204 148.405 53.32 148.805 53.552C149.213 53.776 149.529 54.104 149.753 54.536C149.985 54.968 150.101 55.484 150.101 56.084C150.101 56.644 149.989 57.144 149.765 57.584C149.549 58.024 149.225 58.372 148.793 58.628C148.361 58.876 147.841 59 147.233 59C146.409 59 145.761 58.82 145.289 58.46C144.825 58.092 144.497 57.576 144.305 56.912C144.121 56.248 144.029 55.42 144.029 54.428C144.029 51.5 145.061 50.036 147.125 50.036C147.925 50.036 148.553 50.252 149.009 50.684C149.473 51.116 149.745 51.648 149.825 52.28H148.565ZM147.113 54.356C146.625 54.356 146.209 54.504 145.865 54.8C145.529 55.088 145.361 55.508 145.361 56.06C145.361 56.612 145.517 57.052 145.829 57.38C146.149 57.7 146.593 57.86 147.161 57.86C147.665 57.86 148.061 57.704 148.349 57.392C148.645 57.08 148.793 56.664 148.793 56.144C148.793 55.6 148.649 55.168 148.361 54.848C148.081 54.52 147.665 54.356 147.113 54.356Z" fill="#FAFAFA"/>
<path d="M25.0862 85.832V86.91H17.8062V85.832H25.0862ZM25.0862 88.842V89.92H17.8062V88.842H25.0862ZM36.9198 90.326C36.9198 90.774 36.8078 91.2033 36.5838 91.614C36.3598 92.0153 36.0285 92.3513 35.5898 92.622C35.1605 92.8927 34.6425 93.0467 34.0358 93.084V94.218H33.2798V93.084C32.4305 93.0093 31.7398 92.7387 31.2078 92.272C30.6758 91.796 30.4051 91.194 30.3958 90.466H31.7538C31.7911 90.858 31.9358 91.1987 32.1878 91.488C32.4491 91.7773 32.8131 91.9593 33.2798 92.034V88.534C32.6545 88.3753 32.1505 88.212 31.7678 88.044C31.3851 87.876 31.0585 87.6147 30.7878 87.26C30.5171 86.9053 30.3818 86.4293 30.3818 85.832C30.3818 85.076 30.6431 84.4507 31.1658 83.956C31.6978 83.4613 32.4025 83.186 33.2798 83.13V81.968H34.0358V83.13C34.8291 83.1953 35.4685 83.452 35.9538 83.9C36.4391 84.3387 36.7191 84.9127 36.7938 85.622H35.4358C35.3891 85.2953 35.2445 85.0013 35.0018 84.74C34.7591 84.4693 34.4371 84.292 34.0358 84.208V87.624C34.6518 87.7827 35.1511 87.946 35.5338 88.114C35.9258 88.2727 36.2525 88.5293 36.5138 88.884C36.7845 89.2387 36.9198 89.7193 36.9198 90.326ZM31.6838 85.762C31.6838 86.2193 31.8191 86.5693 32.0898 86.812C32.3605 87.0547 32.7571 87.2553 33.2798 87.414V84.18C32.7945 84.2267 32.4071 84.3853 32.1178 84.656C31.8285 84.9173 31.6838 85.286 31.6838 85.762ZM34.0358 92.048C34.5398 91.992 34.9318 91.81 35.2118 91.502C35.5011 91.194 35.6458 90.8253 35.6458 90.396C35.6458 89.9387 35.5058 89.5887 35.2258 89.346C34.9458 89.094 34.5491 88.8933 34.0358 88.744V92.048ZM38.7408 85.426C38.8061 84.5673 39.1375 83.8953 39.7348 83.41C40.3321 82.9247 41.1068 82.682 42.0588 82.682C42.6935 82.682 43.2395 82.7987 43.6968 83.032C44.1635 83.256 44.5135 83.564 44.7468 83.956C44.9895 84.348 45.1108 84.7913 45.1108 85.286C45.1108 85.8647 44.9428 86.364 44.6068 86.784C44.2801 87.204 43.8508 87.4747 43.3188 87.596V87.666C43.9255 87.8153 44.4061 88.1093 44.7608 88.548C45.1155 88.9867 45.2928 89.5607 45.2928 90.27C45.2928 90.802 45.1715 91.2827 44.9288 91.712C44.6861 92.132 44.3221 92.4633 43.8368 92.706C43.3515 92.9487 42.7681 93.07 42.0868 93.07C41.0975 93.07 40.2855 92.8133 39.6508 92.3C39.0161 91.7773 38.6615 91.04 38.5868 90.088H39.8188C39.8841 90.648 40.1128 91.1053 40.5048 91.46C40.8968 91.8147 41.4195 91.992 42.0728 91.992C42.7261 91.992 43.2208 91.824 43.5568 91.488C43.9021 91.1427 44.0748 90.6993 44.0748 90.158C44.0748 89.458 43.8415 88.954 43.3748 88.646C42.9081 88.338 42.2035 88.184 41.2608 88.184H40.9388V87.12H41.2748C42.1335 87.1107 42.7821 86.9707 43.2208 86.7C43.6595 86.42 43.8788 85.9907 43.8788 85.412C43.8788 84.9173 43.7155 84.5207 43.3888 84.222C43.0715 83.9233 42.6141 83.774 42.0168 83.774C41.4381 83.774 40.9715 83.9233 40.6168 84.222C40.2621 84.5207 40.0521 84.922 39.9868 85.426H38.7408ZM46.3549 90.746V89.78L51.2689 82.976H52.7949V89.64H54.1949V90.746H52.7949V93H51.5349V90.746H46.3549ZM51.5909 84.306L47.8249 89.64H51.5909V84.306ZM55.1176 87.834C55.1176 86.2287 55.3789 84.978 55.9016 84.082C56.4243 83.1767 57.3389 82.724 58.6456 82.724C59.9429 82.724 60.8529 83.1767 61.3756 84.082C61.8983 84.978 62.1596 86.2287 62.1596 87.834C62.1596 89.4673 61.8983 90.7367 61.3756 91.642C60.8529 92.5473 59.9429 93 58.6456 93C57.3389 93 56.4243 92.5473 55.9016 91.642C55.3789 90.7367 55.1176 89.4673 55.1176 87.834ZM60.8996 87.834C60.8996 87.022 60.8436 86.336 60.7316 85.776C60.6289 85.2067 60.4096 84.7493 60.0736 84.404C59.7469 84.0587 59.2709 83.886 58.6456 83.886C58.0109 83.886 57.5256 84.0587 57.1896 84.404C56.8629 84.7493 56.6436 85.2067 56.5316 85.776C56.4289 86.336 56.3776 87.022 56.3776 87.834C56.3776 88.674 56.4289 89.3787 56.5316 89.948C56.6436 90.5173 56.8629 90.9747 57.1896 91.32C57.5256 91.6653 58.0109 91.838 58.6456 91.838C59.2709 91.838 59.7469 91.6653 60.0736 91.32C60.4096 90.9747 60.6289 90.5173 60.7316 89.948C60.8436 89.3787 60.8996 88.674 60.8996 87.834ZM64.1746 93.084C63.932 93.084 63.7266 93 63.5586 92.832C63.3906 92.664 63.3066 92.4587 63.3066 92.216C63.3066 91.9733 63.3906 91.768 63.5586 91.6C63.7266 91.432 63.932 91.348 64.1746 91.348C64.408 91.348 64.604 91.432 64.7626 91.6C64.9306 91.768 65.0146 91.9733 65.0146 92.216C65.0146 92.4587 64.9306 92.664 64.7626 92.832C64.604 93 64.408 93.084 64.1746 93.084ZM72.6021 83.984H67.6881V87.176C67.9027 86.8773 68.2201 86.6347 68.6401 86.448C69.0601 86.252 69.5127 86.154 69.9981 86.154C70.7727 86.154 71.4027 86.3173 71.8881 86.644C72.3734 86.9613 72.7187 87.3767 72.9241 87.89C73.1387 88.394 73.2461 88.9307 73.2461 89.5C73.2461 90.172 73.1201 90.774 72.8681 91.306C72.6161 91.838 72.2287 92.258 71.7061 92.566C71.1927 92.874 70.5534 93.028 69.7881 93.028C68.8081 93.028 68.0147 92.776 67.4081 92.272C66.8014 91.768 66.4327 91.096 66.3021 90.256H67.5481C67.6694 90.788 67.9261 91.2033 68.3181 91.502C68.7101 91.8007 69.2047 91.95 69.8021 91.95C70.5394 91.95 71.0947 91.7307 71.4681 91.292C71.8414 90.844 72.0281 90.256 72.0281 89.528C72.0281 88.8 71.8414 88.24 71.4681 87.848C71.0947 87.4467 70.5441 87.246 69.8161 87.246C69.3214 87.246 68.8874 87.3673 68.5141 87.61C68.1501 87.8433 67.8841 88.1653 67.7161 88.576H66.5121V82.864H72.6021V83.984ZM80.2311 85.286C80.0258 84.25 79.3864 83.732 78.3131 83.732C77.4824 83.732 76.8618 84.054 76.4511 84.698C76.0404 85.3327 75.8398 86.3827 75.8491 87.848C76.0638 87.3627 76.4184 86.9847 76.9131 86.714C77.4171 86.434 77.9771 86.294 78.5931 86.294C79.5544 86.294 80.3198 86.5927 80.8891 87.19C81.4678 87.7873 81.7571 88.6133 81.7571 89.668C81.7571 90.3027 81.6311 90.872 81.3791 91.376C81.1364 91.88 80.7631 92.2813 80.2591 92.58C79.7644 92.8787 79.1624 93.028 78.4531 93.028C77.4918 93.028 76.7404 92.8133 76.1991 92.384C75.6578 91.9547 75.2798 91.362 75.0651 90.606C74.8504 89.85 74.7431 88.9167 74.7431 87.806C74.7431 84.3807 75.9378 82.668 78.3271 82.668C79.2418 82.668 79.9604 82.9153 80.4831 83.41C81.0058 83.9047 81.3138 84.53 81.4071 85.286H80.2311ZM78.3271 87.372C77.9258 87.372 77.5478 87.456 77.1931 87.624C76.8384 87.7827 76.5491 88.03 76.3251 88.366C76.1104 88.6927 76.0031 89.094 76.0031 89.57C76.0031 90.2793 76.2084 90.858 76.6191 91.306C77.0298 91.7447 77.6178 91.964 78.3831 91.964C79.0364 91.964 79.5544 91.7633 79.9371 91.362C80.3291 90.9513 80.5251 90.4007 80.5251 89.71C80.5251 88.982 80.3384 88.4127 79.9651 88.002C79.5918 87.582 79.0458 87.372 78.3271 87.372Z" fill="#D2D2E9"/>
<g opacity="0.45">
<circle opacity="0.4" cx="240.682" cy="93.5565" r="104.743" transform="rotate(-30 240.682 93.5565)" fill="#0D63D3"/>
<circle opacity="0.6" cx="270.95" cy="101.667" r="104.743" transform="rotate(-30 270.95 101.667)" fill="#0D63D3"/>
<circle cx="304.436" cy="103.266" r="104.743" transform="rotate(-30 304.436 103.266)" fill="#0D63D3"/>
</g>
</g>
<defs>
<clipPath id="clip0_1_4394">
<rect width="290" height="112" rx="8" fill="white"/>
</clipPath>
</defs>
</svg>
