<svg width="28" height="28" viewBox="0 0 28 28" fill="none" xmlns="http://www.w3.org/2000/svg">
<path d="M27.5812 17.3856C25.7107 24.8896 18.1079 29.4512 10.6146 27.5805C3.11039 25.71 -1.4512 18.1076 0.419438 10.6144C2.28997 3.11039 9.88169 -1.4512 17.3859 0.419439C24.8792 2.27903 29.4518 9.88147 27.5812 17.3856Z" fill="url(#paint0_linear_616_793)"/>
<path d="M20.6659 12.2555C20.9393 10.3961 19.5284 9.38985 17.5815 8.72266L18.2159 6.1961L16.6846 5.81329L16.0721 8.27422C15.6674 8.17579 15.2518 8.07735 14.8362 7.98985L15.4487 5.51797L13.9174 5.13516L13.294 7.65079C12.9549 7.57422 12.6268 7.49766 12.3096 7.4211V7.41016L10.1877 6.88516L9.78304 8.52579C9.78304 8.52579 10.9205 8.78829 10.8987 8.79922C11.5221 8.95235 11.6315 9.36797 11.6096 9.6961L10.8877 12.5727C10.9315 12.5836 10.9862 12.5945 11.0518 12.6273C10.9971 12.6164 10.9424 12.6055 10.8877 12.5836L9.88148 16.6086C9.80492 16.7945 9.60804 17.0789 9.18148 16.9695C9.19242 16.9914 8.06586 16.6961 8.06586 16.6961L7.30023 18.457L9.30179 18.9602C9.67367 19.0586 10.0346 19.1461 10.3955 19.2445L9.76117 21.793L11.2924 22.1758L11.9268 19.6492C12.3424 19.7586 12.758 19.868 13.1518 19.9664L12.5284 22.482L14.0596 22.8648L14.694 20.3164C17.319 20.8086 19.2877 20.6117 20.108 18.2383C20.7752 16.3352 20.0752 15.2305 18.6971 14.5086C19.7143 14.2789 20.469 13.6117 20.6659 12.2555ZM17.1549 17.1774C16.6846 19.0805 13.469 18.0523 12.4299 17.7898L13.2721 14.4102C14.3112 14.6727 17.658 15.1867 17.1549 17.1774ZM17.6362 12.2227C17.1987 13.9617 14.5299 13.0758 13.6659 12.857L14.4315 9.79454C15.2955 10.0133 18.0846 10.418 17.6362 12.2227Z" fill="white"/>
<defs>
<linearGradient id="paint0_linear_616_793" x1="13.9924" y1="-0.00671999" x2="13.9924" y2="27.9972" gradientUnits="userSpaceOnUse">
<stop stop-color="#F9AA4B"/>
<stop offset="1" stop-color="#F7931A"/>
</linearGradient>
</defs>
</svg>
